<svg xmlns="http://www.w3.org/2000/svg" viewBox="0 0 101.88 61.47"><defs><style>.cls-1{fill:#4d4d4d;}</style></defs><title>arrowDown</title><g id="Layer_2" data-name="Layer 2"><g id="Layer_1-2" data-name="Layer 1"><path class="cls-1" d="M0,11.07A8.56,8.56,0,0,1,.2,9.78,3.4,3.4,0,0,1,.87,8.47c.45-.47.88-1,1.33-1.42C2.8,6.43,3.42,5.84,4,5.23l.83-.83c.28-.29.54-.6.83-.88s.65-.61,1-.92l1-1.06A4.57,4.57,0,0,1,9.42.42a4.14,4.14,0,0,1,2-.17A4.09,4.09,0,0,1,12.8.71a5.75,5.75,0,0,1,1.2.93c.37.34.7.71,1.06,1.07s.5.46.75.69.72.72,1.09,1.07l.9.86.71.73.52.49.84.83.52.52.74.71c.19.17.38.33.56.51s.41.44.63.65l.74.71c.18.16.34.35.51.52s.57.55.86.82l.71.69c.33.31.66.61,1,.93s.47.5.71.74l.79.74c.48.47.94.95,1.43,1.41.63.62,1.28,1.23,1.92,1.84.4.38.78.78,1.18,1.16l2.07,2,1.39,1.37,1.23,1.22,2,2,1.49,1.44c.48.46,1,.92,1.44,1.39L43.2,30.1l1.09,1.09.76.7c.18.18.33.38.51.55s.44.4.66.61.47.49.72.73.45.42.67.63.37.36.55.54l.5.48c.23.23.45.46.68.68l.53.51.49.48c.19.18.38.37.59.54s.24-.06.31-.13c.39-.37.76-.75,1.14-1.13s.49-.51.75-.76.5-.46.75-.7l1-1,1.19-1.18L57.87,31c.24-.24.51-.46.75-.7l.85-.87.46-.46c.2-.2.39-.4.6-.59l.94-.92L63,25.92c.42-.42.85-.82,1.28-1.24.25-.24.49-.5.74-.75l1.3-1.28.93-.92,1.36-1.33c.53-.51,1-1,1.56-1.54s1-1,1.52-1.45c.35-.33.68-.69,1-1l2-2c.26-.25.49-.52.75-.77s.5-.46.75-.69.55-.58.84-.86l.93-.91,1.26-1.23c.42-.41.84-.81,1.25-1.23s.63-.65,1-1,.6-.54.89-.83.6-.64.91-1,.6-.54.89-.82L85.35,4l1.51-1.48c.39-.38.76-.78,1.16-1.16A4.79,4.79,0,0,1,89.89.18a4.36,4.36,0,0,1,2-.12,3.7,3.7,0,0,1,1.36.51,5,5,0,0,1,1.05.83l.74.76c.28.28.58.55.87.83s.61.64.92.95.58.56.87.84l1.17,1.16c.42.42.84.83,1.25,1.25a13.76,13.76,0,0,1,1.14,1.27,3.55,3.55,0,0,1,.5,1.16,4.19,4.19,0,0,1,.16,1.4,4.45,4.45,0,0,1-.35,1.38,4,4,0,0,1-.79,1.24c-.3.32-.61.61-.92.92s-.6.63-.91.94-.48.44-.71.66-.34.37-.52.55l-.86.87-.72.69L94.35,20c-.59.58-1.16,1.18-1.75,1.77l-1.51,1.5-1.57,1.57-1.33,1.33L86.37,28c-.44.45-.9.88-1.35,1.33l-1.49,1.51L82.1,32.25l-1.27,1.26c-.38.39-.74.78-1.12,1.16s-.56.55-.84.82l-.75.76c-.3.31-.62.6-.92.9l-1,1L75,39.36l-1.25,1.23L72.3,42l-1.49,1.51-.93.9-1.07,1.08-.92.92-.71.73-.81.8-1.25,1.24-1.89,1.87-1.71,1.73-1.1,1.09c-.25.26-.48.52-.73.77l-.83.8c-.26.26-.5.53-.76.78s-.5.46-.74.7-.68.66-1,1l-1.43,1.43c-.35.36-.71.71-1.07,1a4,4,0,0,1-1.24.75,3.94,3.94,0,0,1-1.79.28,2.93,2.93,0,0,1-1.23-.27c-.38-.21-.8-.38-1.17-.62a4,4,0,0,1-.63-.61c-.26-.25-.53-.49-.78-.74s-.6-.64-.91-.95l-1.07-1-1.11-1.11-1.6-1.6-1-1c-.29-.27-.6-.54-.88-.82s-.47-.51-.71-.76-.56-.52-.83-.79-.5-.53-.76-.78-.6-.54-.88-.82c-.45-.45-.88-.91-1.33-1.36l-.64-.62c-.17-.16-.36-.32-.53-.49l-.93-.92c-.24-.25-.47-.51-.72-.75l-1.27-1.24c-.25-.24-.49-.51-.74-.76s-.7-.68-1.06-1l-1.5-1.47-1.42-1.43-2.33-2.29-1.93-1.88L20.93,33.4,19.5,32l-1.59-1.55c-.32-.32-.66-.62-1-.94s-.54-.59-.83-.88-.65-.59-1-.9-.68-.73-1-1.08-.76-.7-1.13-1.06-.47-.51-.72-.76-.58-.54-.86-.82-.33-.35-.51-.52L10.35,23l-1-1-.59-.57-.87-.87L6.73,19.37l-1.3-1.3L4,16.62c-.69-.67-1.38-1.34-2.06-2-.33-.33-.64-.67-.95-1A3.13,3.13,0,0,1,.28,12.4C.15,11.94.08,11.47,0,11.07Z"/></g></g></svg>