<svg xmlns="http://www.w3.org/2000/svg" viewBox="0 0 61.43 101.88"><defs><style>.cls-1{fill:#4d4d4d;}</style></defs><title>arrow</title><g id="Layer_2" data-name="Layer 2"><g id="Layer_1-2" data-name="Layer 1"><path class="cls-1" d="M11,101.88a8.76,8.76,0,0,1-1.29-.2,3.3,3.3,0,0,1-1.3-.67c-.47-.45-1-.88-1.43-1.33-.61-.6-1.21-1.22-1.81-1.83L4.31,97l-.88-.83c-.31-.32-.6-.66-.92-1s-.7-.67-1-1A4.5,4.5,0,0,1,.34,92.45a4.25,4.25,0,0,1-.17-2,4.32,4.32,0,0,1,.46-1.38,5.8,5.8,0,0,1,.94-1.2c.33-.37.71-.7,1.06-1.05s.46-.5.7-.75S4,85.34,4.4,85s.57-.61.86-.9.49-.48.73-.72.33-.34.49-.51L7.31,82l.52-.52c.24-.25.48-.49.71-.74s.33-.38.51-.56l.65-.62c.24-.25.47-.51.71-.75s.35-.34.52-.51l.83-.85.69-.72.93-1c.24-.24.49-.46.73-.71s.49-.52.75-.78c.47-.48,1-1,1.41-1.43l1.84-1.92,1.17-1.18,2-2.07,1.37-1.38,1.22-1.24,2-2,1.44-1.49,1.39-1.44c.45-.47.91-.93,1.36-1.39s.74-.72,1.1-1.09.46-.51.7-.76.37-.33.55-.5.39-.45.6-.66.5-.48.74-.72l.62-.67.55-.56.48-.49.68-.69.51-.52c.15-.17.32-.33.48-.49s.37-.39.54-.59-.06-.24-.13-.32c-.36-.38-.75-.76-1.12-1.13s-.52-.49-.77-.75-.46-.5-.7-.75-.66-.68-1-1l-1.18-1.18L31,44c-.24-.24-.46-.5-.71-.75s-.57-.56-.86-.85L28.92,42c-.19-.2-.4-.4-.59-.61s-.61-.63-.91-.95l-1.53-1.54L24.66,37.6l-.76-.74-1.27-1.3-.92-.93c-.44-.46-.88-.92-1.33-1.37L18.84,31.7c-.49-.5-1-1-1.45-1.52-.33-.35-.68-.68-1-1l-2-2-.76-.74c-.24-.24-.46-.51-.7-.75s-.58-.56-.86-.84l-.9-.94L9.92,22.6,8.69,21.35c-.32-.32-.65-.63-1-1s-.54-.6-.83-.89-.64-.6-.94-.91-.55-.6-.83-.9S4.34,16.92,4,16.53L2.48,15c-.39-.39-.79-.77-1.16-1.16A4.72,4.72,0,0,1,.18,12a4.36,4.36,0,0,1-.12-2A3.72,3.72,0,0,1,.58,8.66a5.21,5.21,0,0,1,.82-1l.76-.73c.29-.29.55-.59.83-.87s.65-.61,1-.92l.83-.87L6,3.05,7.2,1.8A12.35,12.35,0,0,1,8.47.67,3.37,3.37,0,0,1,9.63.16,4.18,4.18,0,0,1,11,0a4.43,4.43,0,0,1,1.38.34,4.06,4.06,0,0,1,1.24.8c.32.29.61.61.92.91l.94.92c.23.23.44.47.66.7l.55.53c.29.28.58.57.86.86s.46.48.69.72L20,7.54l1.77,1.75,1.5,1.52,1.57,1.56c.44.45.88.9,1.33,1.34L28,15.53l1.32,1.35c.5.5,1,1,1.51,1.5l1.41,1.42,1.26,1.27,1.16,1.12c.28.28.55.57.82.85s.51.49.76.75l.9.92,1,1,1.17,1.17,1.24,1.26L42,29.61l1.51,1.5.9.92,1.08,1.08.91.92.74.71.8.81,1.24,1.25c.62.63,1.24,1.27,1.87,1.89s1.15,1.14,1.72,1.71l1.09,1.11c.26.24.52.48.77.73s.53.56.8.83.53.5.78.76.46.5.69.74.67.68,1,1c.47.48.95,1,1.43,1.43s.7.71,1,1.08a3.87,3.87,0,0,1,.75,1.23,3.81,3.81,0,0,1,.28,1.79,2.93,2.93,0,0,1-.27,1.23c-.21.39-.38.8-.62,1.17a4,4,0,0,1-.61.63c-.25.26-.49.53-.75.78l-.94.91c-.35.35-.69.72-1,1.07s-.73.74-1.1,1.11l-1.61,1.6c-.34.35-.69.69-1,1s-.54.59-.83.87-.51.47-.76.72-.52.55-.79.82-.53.5-.78.76-.54.6-.83.88c-.44.45-.91.88-1.36,1.33-.21.2-.41.42-.61.64s-.33.35-.49.53c-.31.31-.61.62-.93.93s-.51.47-.75.71l-1.23,1.28c-.25.25-.52.48-.76.73s-.69.71-1,1.06l-1.47,1.51L39.4,74.84l-2.29,2.32c-.63.65-1.25,1.3-1.89,1.94S34,80.35,33.34,81l-1.43,1.44c-.53.52-1.05,1-1.56,1.58-.32.32-.62.66-.94,1s-.59.54-.88.83-.6.65-.91,1-.73.68-1.08,1-.7.76-1.06,1.13-.51.47-.75.71-.54.58-.82.87l-.53.5c-.17.17-.33.35-.5.53l-1,1-.57.59-.87.87c-.38.38-.75.76-1.13,1.13s-.87.87-1.3,1.3-1,1-1.45,1.48c-.68.69-1.35,1.38-2,2-.32.33-.67.64-1,1a3.11,3.11,0,0,1-1.19.66A12.71,12.71,0,0,1,11,101.88Z"/></g></g></svg>