<svg xmlns="http://www.w3.org/2000/svg" viewBox="0 0 494.56 50.4"><defs><style>.cls-1{fill:#fff;}</style></defs><title>blog_logo</title><g id="Layer_2" data-name="Layer 2"><g id="Layer_1-2" data-name="Layer 1"><path class="cls-1" d="M18.5,50.4H0V0H18.5c9.58,0,14.84,5.11,16.93,9.94V40.47C33.34,45.29,28.08,50.4,18.5,50.4ZM17.28,5.69H7.2v39H17.28c5.69,0,9.51-2.6,11-6.12V11.81C26.79,8.28,23,5.69,17.28,5.69Z"/><path class="cls-1" d="M80.5,46V50.4H74.16L69.91,36.29H50.83L46.58,50.4H40.89V46L55.22,0H66.1ZM68.26,30.6,61,6.34H59.76L52.49,30.6Z"/><path class="cls-1" d="M79.41,5.69V0H114V5.69H100.3V50.4H93.1V5.69Z"/><path class="cls-1" d="M152.5,46V50.4h-6.34l-4.25-14.11H122.83L118.58,50.4h-5.69V46L127.22,0H138.1ZM140.26,30.6,133,6.34h-1.22L124.49,30.6Z"/><path class="cls-1" d="M179.71,50.4H158.83V0h20.88c9.36,0,14.69,5.18,16.78,9.94V40.47C194.4,45.22,189.07,50.4,179.71,50.4Zm-2.3-41.69h-7.06v33h7.06c4,0,6.62-1.73,7.56-4.1V12.82C184,10.44,181.37,8.71,177.41,8.71Z"/><path class="cls-1" d="M240.91,44v6.4h-9.43L220.82,31.83h-5.18V50.4H204.12V0h21.24a16.87,16.87,0,0,1,15,8.57V23.19a16.1,16.1,0,0,1-8.14,7.27ZM215.64,23.4h7.13c3.17,0,5.47-1.29,6.69-3.53V12.24c-1.22-2.3-3.74-3.53-6.69-3.53h-7.13Z"/><path class="cls-1" d="M259.34,0V50.4H247.82V0Z"/><path class="cls-1" d="M265.24,0h10.95l9.22,37.73h1.29L296.06,0h9.87V6.41l-12.31,44h-16l-12.39-44Z"/><path class="cls-1" d="M343,0V8.79H323.42V20.23h18.29V29H323.42v12.6h20.09V50.4H311.9V0Z"/><path class="cls-1" d="M363.38,0l14.76,31.11h1.37V0h10.66V50.4h-13L362.44,19.3h-1.36V50.4H350.42V0Z"/><path class="cls-1" d="M421.41,0V21.6h21.67V0h7.21V50.4h-7.21V27.29H421.41V50.4h-7.2V0Z"/><path class="cls-1" d="M494.56,46V50.4h-5.68L476,30.1h-8V50.4h-7.2V0h18.94a16.27,16.27,0,0,1,14.4,8.5v13a15.94,15.94,0,0,1-10.58,8.14ZM468,24.41h10.16a10,10,0,0,0,9.14-5.11V10.87a10,10,0,0,0-9.14-5.18H468Z"/></g></g></svg>