<svg xmlns="http://www.w3.org/2000/svg" viewBox="0 0 127.29 173.88"><defs><style>.cls-1{fill:#f2f2f2;}.cls-2{fill:#fff;stroke:#f2f2f2;stroke-miterlimit:10;stroke-width:2px;}.cls-3{fill:#e6e6e6;}</style></defs><title>report</title><g id="Layer_2" data-name="Layer 2"><g id="Application"><rect class="cls-1" width="120.04" height="167.82"/><rect class="cls-2" x="6.25" y="5.07" width="120.04" height="167.82"/><rect class="cls-3" x="19.33" y="17.67" width="92.92" height="14.35"/><rect class="cls-3" x="19.33" y="39.38" width="52.54" height="7.18"/><rect class="cls-3" x="19.33" y="71.48" width="52.54" height="7.18"/><rect class="cls-3" x="19.33" y="53.91" width="27.72" height="3.59"/><rect class="cls-3" x="28.16" y="86.3" width="27.72" height="3.59"/><rect class="cls-3" x="65.65" y="86.3" width="27.72" height="3.59"/><rect class="cls-3" x="28.16" y="93.68" width="27.72" height="3.59"/><rect class="cls-3" x="28.16" y="101.06" width="27.72" height="3.59"/><rect class="cls-3" x="28.16" y="108.44" width="27.72" height="3.59"/><rect class="cls-3" x="28.16" y="115.82" width="27.72" height="3.59"/><rect class="cls-3" x="19.33" y="140.62" width="66.54" height="3.59"/><rect class="cls-3" x="19.33" y="133.01" width="70.64" height="5.45"/><rect class="cls-3" x="19.33" y="86.3" width="3.59" height="3.59"/><rect class="cls-3" x="19.33" y="93.68" width="3.59" height="3.59"/><rect class="cls-3" x="19.33" y="101.06" width="3.59" height="3.59"/><rect class="cls-3" x="19.33" y="108.44" width="3.59" height="3.59"/><rect class="cls-3" x="19.33" y="115.82" width="3.59" height="3.59"/><rect class="cls-3" x="51.79" y="53.91" width="27.72" height="3.59"/><rect class="cls-3" x="19.33" y="60.26" width="42.69" height="3.59"/><rect class="cls-3" x="67.14" y="60.26" width="15.52" height="3.59"/><rect class="cls-3" x="87.09" y="60.26" width="24.93" height="3.59"/><rect class="cls-3" x="84.3" y="53.91" width="27.72" height="3.59"/><rect class="cls-3" x="65.89" y="93.68" width="44.87" height="25.73"/></g></g></svg>