<svg xmlns="http://www.w3.org/2000/svg" viewBox="0 0 124.79 171.38"><defs><style>.cls-1{fill:#f2f2f2;}.cls-2{fill:#fff;stroke:#f2f2f2;stroke-miterlimit:10;}.cls-3{fill:#e6e6e6;}</style></defs><title>report_1</title><g id="Layer_2" data-name="Layer 2"><g id="Application"><rect class="cls-1" width="120.04" height="167.82"/><rect class="cls-2" x="4.25" y="3.07" width="120.04" height="167.82"/><rect class="cls-3" x="17.33" y="15.67" width="92.92" height="14.35"/><rect class="cls-3" x="17.33" y="37.38" width="52.54" height="7.18"/><rect class="cls-3" x="17.33" y="69.48" width="52.54" height="7.18"/><rect class="cls-3" x="17.33" y="51.91" width="27.72" height="3.59"/><rect class="cls-3" x="26.16" y="84.3" width="27.72" height="3.59"/><rect class="cls-3" x="63.65" y="84.3" width="27.72" height="3.59"/><rect class="cls-3" x="26.16" y="91.68" width="27.72" height="3.59"/><rect class="cls-3" x="26.16" y="99.06" width="27.72" height="3.59"/><rect class="cls-3" x="26.16" y="106.44" width="27.72" height="3.59"/><rect class="cls-3" x="26.16" y="113.82" width="27.72" height="3.59"/><rect class="cls-3" x="17.33" y="138.62" width="66.54" height="3.59"/><rect class="cls-3" x="17.33" y="131.01" width="70.64" height="5.45"/><rect class="cls-3" x="17.33" y="84.3" width="3.59" height="3.59"/><rect class="cls-3" x="17.33" y="91.68" width="3.59" height="3.59"/><rect class="cls-3" x="17.33" y="99.06" width="3.59" height="3.59"/><rect class="cls-3" x="17.33" y="106.44" width="3.59" height="3.59"/><rect class="cls-3" x="17.33" y="113.82" width="3.59" height="3.59"/><rect class="cls-3" x="49.79" y="51.91" width="27.72" height="3.59"/><rect class="cls-3" x="17.33" y="58.26" width="42.69" height="3.59"/><rect class="cls-3" x="65.14" y="58.26" width="15.52" height="3.59"/><rect class="cls-3" x="85.09" y="58.26" width="24.93" height="3.59"/><rect class="cls-3" x="82.3" y="51.91" width="27.72" height="3.59"/><rect class="cls-3" x="63.89" y="91.68" width="44.87" height="25.73"/></g></g></svg>