<svg xmlns="http://www.w3.org/2000/svg" viewBox="0 0 217.65 21.39"><defs><style>.cls-1{fill:#fff;fill-rule:evenodd;}</style></defs><title>trustcruit-logo-white</title><g id="Layer_2" data-name="Layer 2"><g id="Layer_1-2" data-name="Layer 1"><path class="cls-1" d="M81.77.33H80.32a1.14,1.14,0,0,0-1.27,1.24v11.7a4.6,4.6,0,1,1-9.2,0V1.57A1.12,1.12,0,0,0,68.59.33H67.13a1.13,1.13,0,0,0-1.27,1.24v11.7c0,5.3,3.93,8.12,8.6,8.12S83,18.56,83,13.26V1.57A1.14,1.14,0,0,0,81.76.33M97.6,9.4,94.65,8.33c-2.12-.78-2.45-1.75-2.45-2.55,0-1.6,1.5-2.5,3.24-2.5A3.39,3.39,0,0,1,98.7,5a1.29,1.29,0,0,0,1.64.74l1-.28a1,1,0,0,0,.82-1.57C101.06,1.5,98.7,0,95.4,0c-3.9,0-7.16,2.3-7.16,6,0,2.55,2,4.66,5.3,5.7l2.92,1c1.67.6,2.72,1.48,2.72,2.78,0,1.57-1.47,2.67-3.9,2.67a4.61,4.61,0,0,1-4.1-2.05c-.43-.7-.83-1-1.6-.82l-1.07.26c-.8.18-1.23.74-.9,1.5,1.12,2.62,3.88,4.37,7.75,4.37,4.47,0,7.73-2.27,7.73-6.14,0-2.4-1.63-4.66-5.47-5.87m24.7-9h-14.7a1.13,1.13,0,0,0-1.26,1.24v.78a1.15,1.15,0,0,0,1.27,1.26H113V19.83a1.13,1.13,0,0,0,1.27,1.24h1.42a1.13,1.13,0,0,0,1.27-1.24V3.62h5.38a1.16,1.16,0,0,0,1.27-1.27V1.57A1.14,1.14,0,0,0,122.31.33M39.42.33h-19a13.49,13.49,0,0,1,2.66,3.3h7V21.06h2.7A1.24,1.24,0,0,0,34,19.82V3.62h5.36a1.3,1.3,0,0,0,1.3-1.27V1.58A1.26,1.26,0,0,0,39.41.33M143.86,18.4l-.2-.37a.73.73,0,0,0-1.1-.3,10.33,10.33,0,0,1-5.18,1.4c-5.6,0-8.85-3.87-8.85-8.43s3.24-8.44,8.85-8.44a10.29,10.29,0,0,1,5.17,1.4.73.73,0,0,0,1.1-.3l.2-.38a.71.71,0,0,0-.3-1A10.8,10.8,0,0,0,137.4.2C130.34.2,126.18,5,126.18,10.7s4.16,10.5,11.22,10.5a10.85,10.85,0,0,0,6.33-1.83c.34-.2.37-.53.16-1m7.89-7.32V2.25h5.86a4.11,4.11,0,0,1,4.2,4.45,4.06,4.06,0,0,1-4.2,4.38Zm8,1.7a5.92,5.92,0,0,0,4.58-6,6.07,6.07,0,0,0-6.24-6.4h-7.9a.72.72,0,0,0-.78.8V20.26a.73.73,0,0,0,.78.8h.8a.73.73,0,0,0,.78-.8V13h5.36l4.6,7.73a.89.89,0,0,0,.8.36h1.13c.77,0,.74-.5.5-.88l-4.42-7.4ZM185.06.33h-.76a.74.74,0,0,0-.82.8V13.27c0,3.88-2.72,5.8-5.87,5.8s-5.88-1.92-5.88-5.8V1.13a.74.74,0,0,0-.82-.8h-.75a.74.74,0,0,0-.82.8V13.27c0,5.22,3.78,7.9,8.28,7.9s8.27-2.68,8.27-7.9V1.13a.74.74,0,0,0-.8-.8m9.41,0h-.77a.75.75,0,0,0-.82.8V20.26a.75.75,0,0,0,.83.8h.76a.74.74,0,0,0,.8-.8V1.13a.74.74,0,0,0-.8-.8"/><path class="cls-1" d="M216.87.35H201.4a.73.73,0,0,0-.83.8v.33a.74.74,0,0,0,.82.78h6.52v18a.75.75,0,0,0,.82.81h.75a.74.74,0,0,0,.8-.81v-18h6.57a.73.73,0,0,0,.8-.78V1.15a.72.72,0,0,0-.8-.8M17.67,9l-3.57,3a.3.3,0,0,0-.1.25l1.12,4.47a.26.26,0,0,1-.4.26l-4-2.39a.24.24,0,0,0-.28,0l-4,2.39a.26.26,0,0,1-.4-.28l1.1-4.47a.23.23,0,0,0-.08-.26L3.5,9a.26.26,0,0,1,.15-.47l4.67-.34c.1,0,.2-.07.23-.18l1.78-4.25a.29.29,0,0,1,.5,0L12.61,8a.27.27,0,0,0,.24.16l4.67.36a.25.25,0,0,1,.17.45l0,0ZM10.57.35a10.71,10.71,0,0,0-7.47,3A10.3,10.3,0,0,0,0,10.7V21.07H10.58A10.48,10.48,0,0,0,21.16,10.7,10.46,10.46,0,0,0,10.58.35Z"/><path class="cls-1" d="M53.47,10.52H48.84V3.62h4.63a3.22,3.22,0,0,1,3.3,3.46,3.2,3.2,0,0,1-3.3,3.44Zm7.13,9.05-3.88-6.5a6,6,0,0,0,4.13-6A6.42,6.42,0,0,0,54.1.33h-8a1.13,1.13,0,0,0-1.27,1.24V19.82a1.13,1.13,0,0,0,1.27,1.24h1.45a1.13,1.13,0,0,0,1.27-1.24V13.48h3.7l4.13,7a1.39,1.39,0,0,0,1.3.63h1.76c1.32,0,1.27-.83.87-1.5Z"/></g></g></svg>